<svg width="24" height="18" viewBox="0 0 24 18" fill="none" xmlns="http://www.w3.org/2000/svg">
<g id="icon/burger">
<g id="Vector">
<path d="M0 2.33333C0 1.8731 0.447715 1.5 1 1.5H23C23.5523 1.5 24 1.8731 24 2.33333C24 2.79357 23.5523 3.16667 23 3.16667H1C0.447716 3.16667 0 2.79357 0 2.33333Z" fill="#141414"/>
<path d="M0 9C0 8.53976 0.447715 8.16667 1 8.16667H18.125C18.6773 8.16667 19.125 8.53976 19.125 9C19.125 9.46024 18.6773 9.83333 18.125 9.83333H1C0.447716 9.83333 0 9.46024 0 9Z" fill="#141414"/>
<path d="M0 15.6667C0 15.2064 0.447715 14.8333 1 14.8333H23C23.5523 14.8333 24 15.2064 24 15.6667C24 16.1269 23.5523 16.5 23 16.5H1C0.447716 16.5 0 16.1269 0 15.6667Z" fill="#141414"/>
</g>
</g>
</svg>
