<svg width="16" height="17" viewBox="0 0 16 17" fill="none" xmlns="http://www.w3.org/2000/svg">
<path id="Vector" d="M3.2 16.5H12.8C13.6484 16.4991 14.4618 16.1617 15.0618 15.5618C15.6617 14.9618 15.9991 14.1484 16 13.3V5.3C15.9991 4.45158 15.6617 3.63816 15.0618 3.03824C14.4618 2.43832 13.6484 2.10089 12.8 2.1H12V1.3C12 1.08783 11.9157 0.884344 11.7657 0.734315C11.6157 0.584285 11.4122 0.5 11.2 0.5C10.9878 0.5 10.7843 0.584285 10.6343 0.734315C10.4843 0.884344 10.4 1.08783 10.4 1.3V2.1H5.6V1.3C5.6 1.08783 5.51571 0.884344 5.36569 0.734315C5.21566 0.584285 5.01217 0.5 4.8 0.5C4.58783 0.5 4.38434 0.584285 4.23431 0.734315C4.08429 0.884344 4 1.08783 4 1.3V2.1H3.2C2.3516 2.10095 1.53822 2.4384 0.938311 3.03831C0.338401 3.63822 0.000952843 4.4516 0 5.3V13.3C0.000952843 14.1484 0.338401 14.9618 0.938311 15.5617C1.53822 16.1616 2.3516 16.499 3.2 16.5ZM1.6 7.7H14.4V13.3C14.3995 13.7242 14.2308 14.1309 13.9308 14.4308C13.6309 14.7308 13.2242 14.8995 12.8 14.9H3.2C2.77578 14.8996 2.36906 14.7309 2.0691 14.4309C1.76913 14.1309 1.60042 13.7242 1.6 13.3V7.7Z" fill="#AEAEAE"/>
</svg>
