<svg width="16" height="16" viewBox="0 0 16 16" fill="none" xmlns="http://www.w3.org/2000/svg">
<g id="Icon-social-facebook">
<path id="Vector" d="M8.60938 16H6.04713C5.61916 16 5.271 15.6519 5.271 15.2239V9.44459H3.77613C3.34813 9.44459 3 9.09631 3 8.66844V6.192C3 5.764 3.34813 5.41587 3.77613 5.41587H5.271V4.17575C5.271 2.94612 5.65709 1.9 6.38744 1.15059C7.12109 0.397812 8.14637 0 9.35244 0L11.3065 0.0031875C11.7338 0.00390625 12.0813 0.352063 12.0813 0.779281V3.07862C12.0813 3.50659 11.7333 3.85475 11.3054 3.85475L9.98975 3.85522C9.5885 3.85522 9.48631 3.93566 9.46447 3.96031C9.42847 4.00125 9.38562 4.11681 9.38562 4.43603V5.41578H11.2066C11.3436 5.41578 11.4764 5.44959 11.5906 5.51328C11.8368 5.65088 11.9899 5.911 11.9899 6.19212L11.9889 8.66859C11.9889 9.09631 11.6407 9.44447 11.2128 9.44447H9.38559V15.2239C9.38563 15.6519 9.03737 16 8.60938 16Z" fill="#141414"/>
</g>
</svg>
