<svg width="24" height="24" viewBox="0 0 24 24" fill="none" xmlns="http://www.w3.org/2000/svg">
<g id="icon/phone">
<path id="phone-outgoing" d="M22.6487 15.8204L19.3978 13.8805C18.6395 13.4274 17.7362 13.283 16.8745 13.477C16.0128 13.671 15.2585 14.1887 14.7674 14.9231L13.8298 16.3226C11.1523 15.0067 8.98796 12.8378 7.67732 10.1569L9.06901 9.23006C9.80415 8.74137 10.3238 7.98908 10.5207 7.12836C10.7176 6.26764 10.5767 5.36415 10.1272 4.60426L8.20766 1.35464C7.91157 0.859082 7.46868 0.467959 6.94041 0.235491C6.41214 0.0030237 5.82465 -0.0592706 5.2594 0.0572449C4.37803 0.234912 3.54244 0.591462 2.80424 1.10487C2.06603 1.61828 1.44089 2.27764 0.967438 3.04223C0.500448 3.78797 0.193653 4.62274 0.06655 5.49348C-0.0605527 6.36422 -0.00518228 7.25189 0.229142 8.10008C1.26886 11.8438 3.25951 15.2546 6.00745 18.0007C8.75538 20.7468 12.167 22.7347 15.9106 23.7709C16.7576 24.0052 17.6442 24.0606 18.5138 23.9334C19.3835 23.8062 20.2171 23.4994 20.9617 23.0324C21.7262 22.5591 22.3856 21.934 22.8991 21.1958C23.4125 20.4575 23.7691 19.6218 23.9469 18.7402C24.0584 18.179 23.9934 17.597 23.761 17.0742C23.5285 16.5514 23.14 16.1134 22.6487 15.8204ZM22.1369 18.3807C22.0088 19.0131 21.7524 19.6125 21.3834 20.1418C21.0145 20.6711 20.541 21.1191 19.9921 21.458C19.4623 21.7905 18.8691 22.0089 18.2503 22.0994C17.6315 22.1899 17.0006 22.1505 16.3978 21.9836C12.9646 21.0328 9.83572 19.2093 7.31553 16.6906C4.79534 14.1719 2.96959 11.0437 2.01582 7.61017C1.84824 7.00675 1.80831 6.37501 1.89857 5.75528C1.98882 5.13555 2.20729 4.54147 2.54001 4.01096C2.88178 3.45868 3.33359 2.98272 3.86729 2.61275C4.40099 2.24278 5.00513 1.98673 5.64208 1.86054C5.70202 1.84831 5.76303 1.84212 5.8242 1.84208C5.98472 1.84221 6.14244 1.88416 6.28182 1.9638C6.4212 2.04345 6.53745 2.15804 6.61909 2.29629L8.54359 5.54469C8.75229 5.89762 8.81758 6.31723 8.72599 6.71692C8.6344 7.11661 8.39292 7.46588 8.05139 7.69264L6.00877 9.05281C5.83041 9.17146 5.69886 9.34848 5.63667 9.55352C5.57449 9.75856 5.58553 9.97885 5.66792 10.1766C7.21165 13.8555 10.1325 16.7845 13.8064 18.3376C14.0038 18.4195 14.2234 18.4305 14.4279 18.3688C14.6325 18.3071 14.8094 18.1765 14.9286 17.9991L16.3006 15.9509C16.5285 15.6091 16.8791 15.3682 17.2797 15.2779C17.6804 15.1876 18.1004 15.2549 18.4528 15.4659L21.7049 17.4058C21.8686 17.5039 21.998 17.6503 22.0753 17.8248C22.1526 17.9993 22.1741 18.1935 22.1369 18.3807ZM15.0431 8.9568C14.9573 8.87117 14.8893 8.76947 14.8429 8.65753C14.7965 8.54559 14.7726 8.42559 14.7726 8.30441C14.7726 8.18323 14.7965 8.06323 14.8429 7.95129C14.8893 7.83934 14.9573 7.73765 15.0431 7.65202L19.6193 3.073H17.7464C17.5017 3.073 17.267 2.97573 17.0939 2.8026C16.9208 2.62947 16.8236 2.39465 16.8236 2.14981C16.8236 1.90496 16.9208 1.67015 17.0939 1.49702C17.267 1.32388 17.5017 1.22662 17.7464 1.22662H21.8477C22.0921 1.22759 22.3263 1.32517 22.4992 1.49809C22.672 1.67101 22.7696 1.90526 22.7706 2.14981V6.25247C22.7706 6.49731 22.6733 6.73213 22.5003 6.90526C22.3272 7.07839 22.0924 7.17566 21.8477 7.17566C21.6029 7.17566 21.3682 7.07839 21.1951 6.90526C21.022 6.73213 20.9248 6.49731 20.9248 6.25247V4.37901L16.3474 8.9568C16.2619 9.0427 16.1602 9.11086 16.0483 9.15736C15.9364 9.20387 15.8164 9.22781 15.6952 9.22781C15.574 9.22781 15.454 9.20387 15.3421 9.15736C15.2302 9.11086 15.1286 9.0427 15.0431 8.9568Z" fill="#141414"/>
</g>
</svg>
