<svg width="13" height="17" viewBox="0 0 13 17" fill="none" xmlns="http://www.w3.org/2000/svg">
<g id="Vector">
<path d="M11.8333 3.71844V2.31456C12.2299 2.08334 12.5 1.65809 12.5 1.16666V0.833344C12.5 0.649094 12.3509 0.5 12.1667 0.5H0.833344C0.649094 0.5 0.5 0.649094 0.5 0.833344V1.16669C0.5 1.65809 0.770063 2.08334 1.16666 2.31459V3.71844C1.16666 5.03941 1.72981 6.30372 2.71159 7.18719L4.17025 8.5L2.71159 9.81281C1.72981 10.6963 1.16666 11.9606 1.16666 13.2816V14.6854C0.770063 14.9167 0.5 15.3419 0.5 15.8333V16.1667C0.5 16.3509 0.649094 16.5 0.833344 16.5H12.1667C12.3509 16.5 12.5 16.3509 12.5 16.1667V15.8333C12.5 15.3419 12.23 14.9167 11.8334 14.6854V13.2816C11.8334 11.9606 11.2702 10.6963 10.2884 9.81281L8.82975 8.5L10.2884 7.18719C11.2702 6.30372 11.8333 5.03937 11.8333 3.71844ZM9.3965 6.19628L7.38737 8.00456C7.24675 8.13087 7.16666 8.31087 7.16666 8.5C7.16666 8.68913 7.24675 8.86916 7.38737 8.99544L9.3965 10.8037C10.0977 11.4349 10.5 12.3382 10.5 13.2816V14.5H9.6665L6.76659 10.6335C6.64094 10.4655 6.35903 10.4655 6.23338 10.6335L3.3335 14.5H2.5V13.2816C2.5 12.3382 2.90234 11.4349 3.60353 10.8037L5.61266 8.99541C5.75328 8.86909 5.83337 8.68909 5.83337 8.49997C5.83337 8.31084 5.75328 8.13081 5.61266 8.00453L3.60353 6.19625C2.90234 5.56509 2.5 4.66178 2.5 3.71844V2.5H10.5V3.71844C10.5 4.66178 10.0977 5.56509 9.3965 6.19628Z" fill="#AEAEAE"/>
<path d="M8.79753 5.16666H4.20216C4.07031 5.16666 3.95084 5.24447 3.89747 5.36491C3.84409 5.48569 3.86653 5.62631 3.95541 5.72397L6.27637 7.86525C6.33984 7.92288 6.41994 7.9515 6.5 7.9515C6.58006 7.9515 6.66016 7.92284 6.72363 7.86525L9.04425 5.72397C9.13312 5.62631 9.15559 5.48569 9.10219 5.36491C9.04884 5.24447 8.92937 5.16666 8.79753 5.16666Z" fill="#AEAEAE"/>
</g>
</svg>
