<svg width="40" height="40" viewBox="0 0 40 40" fill="none" xmlns="http://www.w3.org/2000/svg">
<g id="Vector">
<path d="M16.3281 6.07383C16.3281 3.91992 18.0805 2.16758 20.2344 2.16758H21.5862L21.1784 1.03398C20.9491 0.396484 20.3484 0 19.708 0C19.5306 0 19.3501 0.0304687 19.1737 0.0946875L5.51336 5.06664C4.70125 5.36226 4.28328 6.26094 4.58062 7.07242L5.30242 9.04258H16.3281V6.07383Z" fill="white"/>
<path d="M20.2344 4.51134C19.3714 4.51134 18.6719 5.21087 18.6719 6.07384V9.04259H32.3437V6.07384C32.3437 5.21087 31.6442 4.51134 30.7812 4.51134H20.2344ZM36.4844 31.5816H31.0156C27.7848 31.5816 25.1562 28.9531 25.1562 25.7223C25.1562 22.4914 27.7848 19.8629 31.0156 19.8629H36.4844V14.5113C36.4844 12.7855 35.0852 11.3863 33.3594 11.3863H3.125C1.39914 11.3863 0 12.7855 0 14.5113V36.875C0 38.6009 1.39914 40 3.125 40H33.3594C35.0852 40 36.4844 38.6009 36.4844 36.875V31.5816Z" fill="white"/>
<path d="M38.8281 22.2066H31.0156C29.0771 22.2066 27.5 23.7838 27.5 25.7223C27.5 27.6608 29.0771 29.2379 31.0156 29.2379H38.8281C39.4743 29.2379 40 28.7122 40 28.066V23.3785C40 22.7323 39.4743 22.2066 38.8281 22.2066ZM31.0156 26.8941C30.3684 26.8941 29.8437 26.3695 29.8437 25.7223C29.8437 25.0751 30.3684 24.5504 31.0156 24.5504C31.6628 24.5504 32.1875 25.0751 32.1875 25.7223C32.1875 26.3695 31.6628 26.8941 31.0156 26.8941Z" fill="white"/>
</g>
</svg>
