<svg width="41" height="37" viewBox="0 0 41 37" fill="none" xmlns="http://www.w3.org/2000/svg">
<g id="Vector">
<path d="M10.4599 29.3034C9.15478 29.301 7.88325 28.897 6.82421 28.1482C5.76516 27.3994 4.9719 26.3435 4.55604 25.129L4.4977 24.9408C4.311 24.3672 4.21378 23.7692 4.20934 23.167V12.0103L0.165644 25.2615C-0.0818427 26.2045 0.0575248 27.2051 0.553769 28.0481C1.05001 28.8912 1.86349 29.5094 2.81922 29.7697L28.5932 36.5459C28.9149 36.6277 29.2366 36.667 29.5533 36.667C31.2134 36.667 32.7302 35.5854 33.1553 33.9915L34.6571 29.3034H10.4599ZM15.0436 12.1215C16.8821 12.1215 18.3773 10.6537 18.3773 8.84881C18.3773 7.0439 16.8821 5.57608 15.0436 5.57608C13.2052 5.57608 11.71 7.0439 11.71 8.84881C11.71 10.6537 13.2052 12.1215 15.0436 12.1215Z" fill="#AEAEAE"/>
<path d="M35.8789 0.666992H10.8766C9.77185 0.668291 8.71271 1.09971 7.93153 1.86663C7.15034 2.63354 6.71089 3.67332 6.70957 4.7579V22.7579C6.70957 25.0128 8.57973 26.8488 10.8766 26.8488H35.8789C38.1757 26.8488 40.0459 25.0128 40.0459 22.7579V4.7579C40.0459 2.50299 38.1757 0.666992 35.8789 0.666992ZM10.8766 3.93972H35.8789C36.0999 3.93972 36.3119 4.02592 36.4682 4.17936C36.6245 4.3328 36.7123 4.54091 36.7123 4.7579V16.3744L31.4468 10.3428C31.1684 10.0289 30.8251 9.77672 30.4396 9.60319C30.0542 9.42967 29.6356 9.33873 29.2116 9.33645C28.7861 9.33861 28.3663 9.43216 27.9816 9.61053C27.5969 9.78891 27.2567 10.0478 26.9847 10.369L20.7942 17.6639L18.7773 15.6888C18.2289 15.1512 17.4855 14.8493 16.7105 14.8493C15.9354 14.8493 15.1921 15.1512 14.6436 15.6888L10.0432 20.2035V4.7579C10.0432 4.54091 10.131 4.3328 10.2873 4.17936C10.4436 4.02592 10.6556 3.93972 10.8766 3.93972Z" fill="#AEAEAE"/>
</g>
</svg>
