<svg width="39" height="41" viewBox="0 0 39 41" fill="none" xmlns="http://www.w3.org/2000/svg">
<g id="Vector">
<path d="M19.6539 32.6183C19.6542 30.4762 20.2775 28.3806 21.4475 26.5879C22.6175 24.7952 24.2836 23.3831 26.2419 22.5244C28.2002 21.6657 30.3657 21.3976 32.4737 21.753C34.5816 22.1083 36.5405 23.0716 38.1106 24.5251C38.1626 20.7596 38.1314 16.994 38.0171 13.2285C37.9548 10.6414 36.4964 8.04418 34.0551 6.76079C32.8002 6.09606 31.5001 5.45632 30.1844 4.85016C24.9893 6.53427 18.9033 8.75188 12.7659 11.5061C12.1758 11.7674 11.6703 12.1887 11.3064 12.7226C10.9426 13.2565 10.7348 13.8816 10.7066 14.5275C10.6107 17.4958 10.5811 20.5593 10.6201 23.5885C10.6229 23.6773 10.5973 23.7647 10.5471 23.8379C10.4968 23.9111 10.4245 23.9663 10.3407 23.9953C10.257 24.0244 10.1661 24.0258 10.0814 23.9994C9.99679 23.973 9.92278 23.9202 9.87023 23.8487C9.22172 23.0155 8.58725 22.1916 7.9668 21.3772C7.9211 21.3137 7.85329 21.2698 7.77679 21.254C7.70029 21.2382 7.62068 21.2518 7.55369 21.292C7.07199 21.5795 6.5986 21.863 6.13353 22.1427C5.87319 22.2989 5.55283 22.0904 5.55127 21.7693C5.53568 18.7518 5.61129 15.7265 5.77186 12.7942C5.83967 11.5577 6.61445 10.393 7.75947 9.82592C13.6459 6.91233 19.926 4.53225 25.2847 2.77081C24.0337 2.28183 22.7975 1.83346 21.587 1.40853C19.9545 0.846896 18.1818 0.846896 16.5494 1.40853C12.511 2.80518 8.09931 4.62833 4.08122 6.76079C1.63685 8.04418 0.181613 10.6414 0.119257 13.2285C-0.0397522 18.3995 -0.0397522 23.5706 0.119257 28.7416C0.181613 31.3287 1.63997 33.9259 4.08122 35.2093C8.09931 37.3418 12.511 39.1649 16.5525 40.5608C18.1849 41.1224 19.9577 41.1224 21.5901 40.5608C21.9435 40.439 22.2997 40.3132 22.6587 40.1835C20.7228 38.1434 19.6465 35.4337 19.6539 32.6183Z" fill="#AEAEAE"/>
<path d="M30.6497 24.2509C28.9981 24.2509 27.3837 24.7417 26.0104 25.6613C24.6372 26.5808 23.567 27.8878 22.935 29.4169C22.303 30.9461 22.1377 32.6287 22.4599 34.252C22.7822 35.8752 23.5775 37.3663 24.7454 38.5366C25.9133 39.7069 27.4013 40.5038 29.0211 40.8266C30.641 41.1494 32.32 40.9836 33.8458 40.3501C35.3716 39.7166 36.6757 38.6439 37.5931 37.2677C38.5105 35.8914 39.0002 34.2734 39 32.6183C38.9998 30.3991 38.1199 28.2708 36.554 26.7016C34.988 25.1325 32.8642 24.2509 30.6497 24.2509ZM33.9593 33.8431H30.4837C30.3532 33.8431 30.2239 33.8174 30.1034 33.7673C29.9828 33.7173 29.8732 33.6439 29.781 33.5514C29.6887 33.459 29.6155 33.3492 29.5655 33.2283C29.5156 33.1075 29.4899 32.978 29.4899 32.8472V27.4965C29.4899 27.2324 29.5946 26.979 29.781 26.7923C29.9673 26.6055 30.2201 26.5006 30.4837 26.5006C30.7473 26.5006 31 26.6055 31.1864 26.7923C31.3728 26.979 31.4775 27.2324 31.4775 27.4965V31.8513H33.9593C34.2228 31.8513 34.4756 31.9562 34.662 32.143C34.8484 32.3297 34.9531 32.5831 34.9531 32.8472C34.9531 33.1113 34.8484 33.3647 34.662 33.5514C34.4756 33.7382 34.2228 33.8431 33.9593 33.8431Z" fill="#AEAEAE"/>
</g>
</svg>
