<svg width="39" height="40" viewBox="0 0 39 40" fill="none" xmlns="http://www.w3.org/2000/svg">
<g id="Vector">
<path d="M20.9928 2.07969H18.8703C18.3662 0.825859 17.1438 0 15.7921 0C14.4404 0 13.2181 0.825859 12.714 2.07969H10.5915C10.0532 2.07969 9.61638 2.51641 9.61638 3.05453V6.95398C9.61638 7.49211 10.0532 7.92883 10.5915 7.92883H20.9928C21.5311 7.92883 21.9679 7.49211 21.9679 6.95398V3.05453C21.9679 2.51641 21.5311 2.07969 20.9928 2.07969Z" fill="#AEAEAE"/>
<path d="M29.5458 4.84375H24.3124V6.95391C24.3124 8.78359 22.8229 10.2727 20.9927 10.2727H10.5915C8.76131 10.2727 7.27184 8.78359 7.27184 6.95391V4.84375H2.0384C1.39135 4.84375 0.866211 5.36875 0.866211 6.01562V38.8281C0.866211 39.475 1.39135 40 2.0384 40H21.3975V25.8453C21.3975 24.0203 22.8823 22.5359 24.7078 22.5359H30.6516C30.6711 22.4977 30.6906 22.4602 30.7102 22.4219C30.7133 16.9531 30.7157 11.4844 30.718 6.01562C30.718 5.36875 30.1929 4.84375 29.5458 4.84375ZM14.2878 31.85L10.2242 35.9125C10.1687 35.968 9.86942 36.2562 9.39507 36.2562C8.92072 36.2562 8.62142 35.968 8.56672 35.9125L6.37863 33.725C5.92382 33.2711 5.92382 32.5227 6.37863 32.068C6.83266 31.6133 7.5813 31.6133 8.03611 32.068L9.39507 33.4266L12.6303 30.193C13.0875 29.7352 13.8299 29.7352 14.2878 30.193C14.7457 30.6508 14.7457 31.393 14.2878 31.85ZM14.2878 24.0375L10.2242 28.1C10.1687 28.1555 9.86942 28.4437 9.39507 28.4437C8.92072 28.4437 8.62142 28.1555 8.56672 28.1L6.37863 25.9125C5.92382 25.4586 5.92382 24.7102 6.37863 24.2555C6.83266 23.8008 7.5813 23.8008 8.03611 24.2555L9.39507 25.6141L12.6303 22.3805C13.0875 21.9227 13.8299 21.9227 14.2878 22.3805C14.7457 22.8383 14.7457 23.5805 14.2878 24.0375ZM14.2878 15.4437L10.2242 19.5062C10.1687 19.5617 9.86942 19.85 9.39507 19.85C8.92072 19.85 8.62142 19.5617 8.56672 19.5062L6.37863 17.3187C5.92382 16.8648 5.92382 16.1164 6.37863 15.6617C6.83266 15.207 7.5813 15.207 8.03611 15.6617L9.39507 17.0203L12.6303 13.7867C13.0875 13.3289 13.8299 13.3289 14.2878 13.7867C14.7457 14.2445 14.7457 14.9867 14.2878 15.4437ZM24.857 20.1625H18.1365C17.4887 20.1625 16.9643 19.6375 16.9643 18.9906C16.9643 18.343 17.4887 17.8187 18.1365 17.8187H24.857C25.5041 17.8187 26.0292 18.343 26.0292 18.9906C26.0292 19.6375 25.5041 20.1625 24.857 20.1625ZM24.857 15.475H18.1365C17.4887 15.475 16.9643 14.95 16.9643 14.3031C16.9643 13.6555 17.4887 13.1312 18.1365 13.1312H24.857C25.5041 13.1312 26.0292 13.6555 26.0292 14.3031C26.0292 14.95 25.5041 15.475 24.857 15.475ZM31.3041 28.3066C31.704 28.3066 31.9725 28.5112 32.0457 28.571L33.1242 29.4518V24.8801H29.4841V29.4517L30.5625 28.571C30.6357 28.5112 30.9042 28.3066 31.3041 28.3066Z" fill="#AEAEAE"/>
<path d="M37.9008 24.8801H35.4687V31.9223C35.4687 32.3742 35.2073 32.7875 34.7989 32.9812C34.3905 33.1748 33.9049 33.1158 33.5549 32.8298L31.3042 30.9917L29.0536 32.8298C28.8818 32.9702 28.6737 33.0589 28.4535 33.0857C28.2333 33.1125 28.01 33.0763 27.8096 32.9812C27.6091 32.8862 27.4398 32.7362 27.3212 32.5488C27.2027 32.3613 27.1397 32.1441 27.1398 31.9223V24.8801H24.7076C24.1744 24.8801 23.7422 25.3122 23.7422 25.8452V40H37.9009C38.4341 40 38.8662 39.5679 38.8662 39.0349V25.8452C38.8661 25.3122 38.4339 24.8801 37.9008 24.8801Z" fill="#AEAEAE"/>
</g>
</svg>
