<svg width="40" height="41" viewBox="0 0 40 41" fill="none" xmlns="http://www.w3.org/2000/svg">
<g id="Vector">
<path d="M39.4667 13.1828L20.7167 0.266162C20.5034 0.12751 20.2544 0.0537109 20 0.0537109C19.7456 0.0537109 19.4966 0.12751 19.2833 0.266162L0.533333 13.1828C0.2 13.4162 0 13.7995 0 14.2162V38.3828C0 39.2995 0.75 40.0495 1.66667 40.0495H8.33333V21.2995C8.33333 20.6112 8.89667 20.0495 9.58333 20.0495H30.4167C31.105 20.0495 31.6667 20.6112 31.6667 21.2995V40.0495H38.3333C39.25 40.0495 40 39.2995 40 38.3828V14.2162C40 13.7995 39.8 13.4162 39.4667 13.1828Z" fill="#AEAEAE"/>
<path d="M10.8333 29.2162H29.1667V33.3828H10.8333V29.2162ZM10.8333 35.8828H29.1667V40.0495H10.8333V35.8828ZM10.8333 22.5495H29.1667V26.7162H10.8333V22.5495Z" fill="#AEAEAE"/>
</g>
</svg>
