<svg width="64" height="64" viewBox="0 0 64 64" fill="none" xmlns="http://www.w3.org/2000/svg">
<g id="Frame 742">
<circle id="Ellipse 32" cx="32" cy="32" r="32" fill="#F0E8DB"/>
<g id="Vector">
<path fill-rule="evenodd" clip-rule="evenodd" d="M32.6445 32.7065L30.1005 32.0735C29.7712 31.9919 29.4095 32.1058 29.1914 32.3917L27.2642 34.9155L25.3334 32.3872C25.1301 32.1013 24.7637 31.9544 24.4018 32.0459L21.3627 32.82C18.767 33.4812 17 35.7419 17 38.4008V41.122C17 41.6045 17.3935 41.9955 17.8789 41.9955H32.7931C32.6945 41.7163 32.6442 41.4225 32.6445 41.1266V32.7065ZM41.098 31.2642L41.6327 31.5313V29.481H39.7808V31.5312L40.3102 31.267C40.4322 31.2052 40.567 31.1728 40.7038 31.1723C40.8406 31.1719 40.9757 31.2033 41.098 31.2642Z" fill="#9C896D"/>
<path fill-rule="evenodd" clip-rule="evenodd" d="M46.1211 29.481H43.3903V32.9435C43.3903 33.4259 42.9969 33.8169 42.5114 33.8169C42.3404 33.8169 42.1807 33.7683 42.0456 33.6841L40.7067 33.0157L39.2933 33.7214C38.7049 34.0146 38.026 33.5763 38.0265 32.9435L38.0228 29.481H35.2812C34.7958 29.481 34.4023 29.8722 34.4023 30.3544V41.1266C34.4023 41.609 34.7958 42 35.2812 42H46.1211C46.6065 42 47 41.609 47 41.1266V30.3544C47 29.872 46.6065 29.481 46.1211 29.481ZM33.182 24.881C33.182 28.129 30.5324 30.762 27.264 30.762C23.9956 30.762 21.346 28.129 21.346 24.881C21.346 21.633 23.9956 19 27.264 19C30.5324 19 33.182 21.633 33.182 24.881Z" fill="#9C896D"/>
</g>
</g>
</svg>
