<svg width="64" height="64" viewBox="0 0 64 64" fill="none" xmlns="http://www.w3.org/2000/svg">
<g id="Frame 743">
<circle id="Ellipse 33" cx="32" cy="32" r="32" fill="#F0E8DB"/>
<path id="Vector" fill-rule="evenodd" clip-rule="evenodd" d="M19 26.3057H45V21.0603L44.9939 21.0689C44.9935 21.0702 44.9927 21.0714 44.9917 21.0722C44.9095 21.0214 44.814 20.9963 44.7175 21.0004H19.2829C19.1862 20.9965 19.0905 21.0213 19.0079 21.0716C19.0075 21.0723 19.0068 21.0708 19.006 21.069L19 21.0603V26.3057ZM45 27.4352V40.9365L44.9939 40.9281C44.9931 40.926 44.992 40.9245 44.9917 40.9249C44.9094 40.9755 44.8139 41.0002 44.7175 40.9959H38.9977L38.3339 34.7168C38.2933 34.319 38.1063 33.9505 37.8091 33.6827C37.512 33.4149 37.1259 33.267 36.7257 33.2676H35.5659V31.9978C35.5659 31.0528 35.1902 30.1466 34.5215 29.4784C33.8528 28.8102 32.9458 28.4348 32.0001 28.4348C31.0543 28.4348 30.1473 28.8102 29.4786 29.4784C28.8099 30.1466 28.4342 31.0528 28.4342 31.9978V33.2676H27.2743C26.8742 33.2668 26.488 33.4147 26.1908 33.6825C25.8936 33.9503 25.7066 34.319 25.6662 34.7168L25.0023 40.9957H19.2829C19.1861 41 19.0904 40.9752 19.0079 40.9246C19.0075 40.9243 19.0068 40.9257 19.006 40.9279L19 40.9365V27.4352H45ZM19 40.9652C19 40.9914 19.0022 40.941 19.0061 40.9279L19 40.9365V40.9655V40.9652ZM19 21.0312C19 21.0056 19.0021 21.0552 19.006 21.0689L19 21.0603V21.0312ZM45 21.0312V21.0603L44.9939 21.0689C44.998 21.0552 45 21.0056 45 21.0312ZM45 40.9365L44.9939 40.9281C44.9979 40.9412 45 40.9916 45 40.9655V40.9365ZM28.0888 24.2178C28.0146 24.2178 27.9411 24.2032 27.8725 24.1749C27.8039 24.1465 27.7416 24.1049 27.6891 24.0524C27.6366 24 27.595 23.9377 27.5666 23.8692C27.5382 23.8007 27.5236 23.7273 27.5236 23.6531C27.5236 23.5789 27.5382 23.5055 27.5666 23.437C27.595 23.3685 27.6366 23.3062 27.6891 23.2538C27.7416 23.2013 27.8039 23.1597 27.8725 23.1313C27.9411 23.103 28.0146 23.0884 28.0888 23.0884H28.1066C28.2564 23.0884 28.4002 23.1479 28.5062 23.2538C28.6122 23.3597 28.6717 23.5033 28.6717 23.6531C28.6717 23.8029 28.6122 23.9465 28.5062 24.0524C28.4002 24.1583 28.2564 24.2178 28.1066 24.2178H28.0888ZM25.0912 24.2178C24.9413 24.2178 24.7976 24.1583 24.6916 24.0524C24.5856 23.9465 24.526 23.8029 24.526 23.6531C24.526 23.5033 24.5856 23.3597 24.6916 23.2538C24.7976 23.1479 24.9413 23.0884 25.0912 23.0884H25.109C25.2589 23.0884 25.4026 23.1479 25.5086 23.2538C25.6146 23.3597 25.6742 23.5033 25.6742 23.6531C25.6742 23.8029 25.6146 23.9465 25.5086 24.0524C25.4026 24.1583 25.2589 24.2178 25.109 24.2178H25.0912ZM22.0936 24.2178C22.0194 24.2178 21.9459 24.2032 21.8774 24.1749C21.8088 24.1465 21.7465 24.1049 21.694 24.0524C21.6415 24 21.5999 23.9377 21.5715 23.8692C21.5431 23.8007 21.5284 23.7273 21.5284 23.6531C21.5284 23.5789 21.5431 23.5055 21.5715 23.437C21.5999 23.3685 21.6415 23.3062 21.694 23.2538C21.7465 23.2013 21.8088 23.1597 21.8774 23.1313C21.9459 23.103 22.0194 23.0884 22.0936 23.0884H22.1118C22.2617 23.0884 22.4054 23.1479 22.5114 23.2538C22.6174 23.3597 22.677 23.5033 22.677 23.6531C22.677 23.8029 22.6174 23.9465 22.5114 24.0524C22.4054 24.1583 22.2617 24.2178 22.1118 24.2178H22.0936ZM35.5659 35.3743C35.5659 35.5241 35.5064 35.6678 35.4004 35.7737C35.2944 35.8796 35.1506 35.9391 35.0007 35.9391C34.8508 35.9391 34.7071 35.8796 34.6011 35.7737C34.4951 35.6678 34.4355 35.5241 34.4355 35.3743V34.3971H29.5646V35.3743C29.5646 35.5241 29.505 35.6678 29.399 35.7737C29.293 35.8796 29.1493 35.9391 28.9994 35.9391C28.8495 35.9391 28.7057 35.8796 28.5997 35.7737C28.4937 35.6678 28.4342 35.5241 28.4342 35.3743V34.3971H27.2743C27.1538 34.3961 27.0371 34.44 26.9472 34.5203C26.8573 34.6006 26.8005 34.7115 26.7879 34.8313L25.559 46.459C25.5508 46.5277 25.5571 46.5974 25.5775 46.6635C25.5996 46.7287 25.6355 46.7884 25.6827 46.8386C25.7276 46.8909 25.7831 46.9332 25.8456 46.9625C25.909 46.9887 25.9772 47.0015 26.0458 46.9999H37.9541C38.0228 47.0015 38.0911 46.9887 38.1546 46.9625C38.2171 46.9332 38.2726 46.8909 38.3175 46.8386C38.3648 46.7884 38.4006 46.7287 38.4228 46.6635C38.4432 46.5974 38.4494 46.5277 38.4409 46.459L37.212 34.8313C37.1994 34.7115 37.1426 34.6006 37.0527 34.5203C36.9627 34.44 36.8461 34.3961 36.7255 34.3971H35.5659V35.3743ZM34.4355 33.2676V31.9978C34.4355 31.3524 34.1789 30.7334 33.7222 30.277C33.2654 29.8207 32.646 29.5643 32.0001 29.5643C31.3541 29.5643 30.7347 29.8207 30.2779 30.277C29.8212 30.7334 29.5646 31.3524 29.5646 31.9978V33.2676H34.4355Z" fill="#9C896D"/>
</g>
</svg>
