<svg width="40" height="37" viewBox="0 0 40 37" fill="none" xmlns="http://www.w3.org/2000/svg">
<path id="Vector" fill-rule="evenodd" clip-rule="evenodd" d="M13.5305 6.55678V10.9512C13.5301 11.1698 13.4422 11.3793 13.286 11.5338C13.1298 11.6884 12.9181 11.7754 12.6972 11.7758H5.90475C5.68387 11.7754 5.47215 11.6884 5.31596 11.5338C5.15977 11.3793 5.07184 11.1698 5.07142 10.9512V6.55678C5.07184 6.33821 5.15977 6.12871 5.31596 5.97415C5.47215 5.8196 5.68387 5.73259 5.90475 5.73217H12.6972C12.9181 5.73259 13.1298 5.8196 13.286 5.97415C13.4422 6.12871 13.5301 6.33821 13.5305 6.55678ZM13.5305 14.9144V19.3088C13.5301 19.5274 13.4422 19.7369 13.286 19.8914C13.1298 20.046 12.9181 20.133 12.6972 20.1334H5.90475C5.68387 20.133 5.47215 20.046 5.31596 19.8914C5.15977 19.7369 5.07184 19.5274 5.07142 19.3088V14.9144C5.07184 14.6958 5.15977 14.4863 5.31596 14.3318C5.47215 14.1772 5.68387 14.0902 5.90475 14.0898H12.6972C12.9181 14.0902 13.1298 14.1772 13.286 14.3318C13.4422 14.4863 13.5301 14.6958 13.5305 14.9144ZM34.0953 5.73226H16.8638C16.6429 5.73265 16.4312 5.81965 16.275 5.97421C16.1188 6.12877 16.0309 6.33828 16.0305 6.55686V19.3088C16.0309 19.5274 16.1189 19.7369 16.275 19.8914C16.4312 20.046 16.6429 20.133 16.8638 20.1334H34.0953C34.3161 20.133 34.5279 20.046 34.684 19.8914C34.8402 19.7369 34.9282 19.5274 34.9286 19.3088V6.55678C34.9282 6.33821 34.8402 6.12872 34.684 5.97418C34.5278 5.81964 34.3161 5.73265 34.0953 5.73226ZM30.5062 15.3285C30.5082 15.4737 30.4706 15.6167 30.3972 15.7424C30.3239 15.8681 30.2175 15.9718 30.0895 16.0426L25.8962 18.4383C25.7702 18.5126 25.6262 18.5519 25.4795 18.5519C25.3328 18.5519 25.1888 18.5126 25.0628 18.4383L20.8695 16.0426C20.7414 15.9718 20.6351 15.8681 20.5618 15.7424C20.4884 15.6167 20.4508 15.4737 20.4528 15.3285V10.5376C20.4508 10.3924 20.4884 10.2494 20.5618 10.1237C20.6351 9.99801 20.7414 9.89426 20.8695 9.82346L25.0628 7.42773C25.1888 7.35342 25.3328 7.31419 25.4795 7.31419C25.6262 7.31419 25.7702 7.35342 25.8962 7.42773L27.264 8.20912L22.2373 11.0808V13.3425L23.6951 14.1754V11.9133L28.7218 9.04156L30.0895 9.82304C30.2175 9.89387 30.3239 9.99762 30.3972 10.1233C30.4706 10.249 30.5082 10.392 30.5062 10.5372V15.3285ZM36.925 0.713867H3.075C2.26018 0.716238 1.47942 1.03759 0.903265 1.60773C0.327106 2.17787 0.0023743 2.95046 0 3.75675V24.69C0.0023744 25.4963 0.327109 26.2689 0.90327 26.839C1.47943 27.4091 2.26019 27.7305 3.075 27.7328H13.7143V32.5673H9.03333C7.59108 32.5673 6.41108 33.5002 6.41108 34.6406V36.7139H33.5887V34.6406C33.5887 33.5002 32.4083 32.5673 30.9667 32.5673H26.2857V27.7328H36.925C37.7398 27.7305 38.5206 27.4091 39.0967 26.839C39.6729 26.2689 39.9976 25.4963 40 24.69V3.75675C39.9976 2.95046 39.6729 2.17787 39.0967 1.60773C38.5206 1.03759 37.7398 0.716238 36.925 0.713867ZM37.4286 22.6072H2.57142V3.68039C2.57175 3.56857 2.61679 3.46142 2.69671 3.38235C2.77662 3.30329 2.88491 3.25874 2.99792 3.25844H37.0021C37.1151 3.25876 37.2234 3.30332 37.3033 3.38238C37.3832 3.46144 37.4282 3.56857 37.4286 3.68039V22.6072Z" fill="#9C896D"/>
</svg>
