<svg width="37" height="40" viewBox="0 0 37 40" fill="none" xmlns="http://www.w3.org/2000/svg">
<g id="Vector">
<path fill-rule="evenodd" clip-rule="evenodd" d="M18.5 0C17.3787 -1.67729e-08 16.2684 0.221706 15.2325 0.65246C14.1965 1.08321 13.2553 1.71458 12.4624 2.51051C11.6695 3.30644 11.0406 4.25134 10.6115 5.29127C10.1824 6.3312 9.96154 7.44579 9.96154 8.57141C9.96154 9.69702 10.1824 10.8116 10.6115 11.8515C11.0406 12.8915 11.6695 13.8364 12.4624 14.6323C13.2553 15.4282 14.1965 16.0596 15.2325 16.4904C16.2684 16.9211 17.3787 17.1428 18.5 17.1428C20.7645 17.1428 22.9363 16.2398 24.5376 14.6323C26.1389 13.0249 27.0385 10.8447 27.0385 8.57141C27.0385 6.29813 26.1389 4.11796 24.5376 2.51051C22.9363 0.903056 20.7645 3.38745e-08 18.5 0ZM22.3523 5.41856C22.6191 5.68645 22.7689 6.04975 22.7689 6.42856C22.7689 6.80736 22.6191 7.17066 22.3523 7.43855L18.083 11.7243C17.9342 11.874 17.7541 11.9886 17.5557 12.0599C17.3574 12.1313 17.1457 12.1575 16.936 12.1367C16.7264 12.1159 16.5239 12.0487 16.3433 11.9398C16.1626 11.8309 16.0083 11.6831 15.8915 11.5071L14.4684 9.36426C14.3647 9.20809 14.2926 9.03293 14.2564 8.84879C14.2201 8.66466 14.2203 8.47515 14.2569 8.29109C14.331 7.91937 14.5491 7.5924 14.8633 7.38213C15.1775 7.17185 15.5621 7.09548 15.9324 7.16983C16.3027 7.24417 16.6284 7.46314 16.8378 7.77855L17.2975 8.47141L20.34 5.41856C20.6069 5.15074 20.9688 5.00029 21.3462 5.00029C21.7235 5.00029 22.0854 5.15074 22.3523 5.41856Z" fill="#9C896D"/>
<path d="M4.55385 19.1428C4.6864 18.9654 4.85829 18.8214 5.05589 18.7222C5.25349 18.623 5.47138 18.5714 5.69231 18.5714H31.3077C31.5286 18.5714 31.7465 18.623 31.9441 18.7222C32.1417 18.8214 32.3136 18.9654 32.4462 19.1428L36.7154 24.8571C36.874 25.0693 36.9705 25.3217 36.9943 25.5859C37.018 25.8502 36.9679 26.1158 36.8498 26.3531C36.7316 26.5904 36.5499 26.79 36.3251 26.9294C36.1003 27.0689 35.8412 27.1428 35.5769 27.1428H22.7692C22.5483 27.1428 22.3304 27.0912 22.1328 26.992C21.9352 26.8928 21.7633 26.7488 21.6308 26.5714L18.5 22.3814L15.3692 26.5714C15.2367 26.7488 15.0648 26.8928 14.8672 26.992C14.6696 27.0912 14.4517 27.1428 14.2308 27.1428H1.42308C1.1588 27.1428 0.899734 27.0689 0.674922 26.9294C0.45011 26.79 0.268429 26.5904 0.150239 26.3531C0.0320481 26.1158 -0.0179831 25.8502 0.00575089 25.5859C0.0294849 25.3217 0.126047 25.0693 0.284616 24.8571L4.55385 19.1428Z" fill="#9C896D"/>
<path d="M4.26923 34.0328V29.2856H14.2308C14.7831 29.2856 15.3278 29.1565 15.8218 28.9086C16.3158 28.6606 16.7455 28.3006 17.0769 27.8571L18.5 25.9528L19.9231 27.8571C20.2545 28.3006 20.6842 28.6606 21.1782 28.9086C21.6722 29.1565 22.2169 29.2856 22.7692 29.2856H32.7308V34.0342C32.7305 34.3295 32.6391 34.6174 32.4691 34.8584C32.2991 35.0994 32.0589 35.2816 31.7816 35.3799L18.9739 39.9185C18.6672 40.0272 18.3328 40.0272 18.0261 39.9185L5.21842 35.3813C4.94061 35.2828 4.70009 35.1002 4.53007 34.8587C4.36006 34.6171 4.26892 34.3285 4.26923 34.0328Z" fill="#9C896D"/>
</g>
</svg>
