<svg width="40" height="41" viewBox="0 0 40 41" fill="none" xmlns="http://www.w3.org/2000/svg">
<g id="Vector">
<path d="M33.3607 10.8313H27.9235L23.9094 9.51333V7.20239C25.3607 6.71177 26.4089 5.33677 26.4089 3.72192C26.4089 1.69692 24.7624 0.0500488 22.7377 0.0500488C20.7131 0.0500488 19.0666 1.69692 19.0666 3.72192H21.4099C21.4099 2.98989 22.0059 2.3938 22.7377 2.3938C23.4696 2.3938 24.0656 2.98989 24.0656 3.72192C24.0656 4.45395 23.4696 5.05005 22.7377 5.05005H21.5661V9.51333L17.552 10.8313H12.1148L5.47549 19.3469L10.3183 24.1907L12.974 20.675V28.4875H20.7928C23.0322 28.4875 24.8545 30.3102 24.8545 32.55C24.8545 33.6805 24.3906 34.704 23.643 35.4407C24.3906 36.1774 24.8545 37.2008 24.8545 38.3313C24.8545 38.9454 24.7178 39.5282 24.4726 40.05H32.5015V20.675L35.1572 24.1907L40 19.3469L33.3607 10.8313ZM22.7377 17.8883L19.0127 12.8188L22.7377 11.5961L26.4628 12.8188L22.7377 17.8883Z" fill="#9C896D"/>
<path d="M20.7928 36.6126H1.71841C0.770943 36.6126 0 37.3836 0 38.3313C0 39.279 0.770943 40.05 1.71841 40.05H20.7928C21.7403 40.05 22.5112 39.279 22.5112 38.3313C22.5112 37.3836 21.7403 36.6126 20.7928 36.6126Z" fill="#9C896D"/>
<path d="M20.7928 30.8313H1.71841C0.770943 30.8313 0 31.6024 0 32.55C0 33.4977 0.770943 34.2688 1.71841 34.2688H20.7928C21.7403 34.2688 22.5112 33.4977 22.5112 32.55C22.5112 31.6024 21.7403 30.8313 20.7928 30.8313Z" fill="#9C896D"/>
</g>
</svg>
