<svg width="40" height="31" viewBox="0 0 40 31" fill="none" xmlns="http://www.w3.org/2000/svg">
<path id="Vector" fill-rule="evenodd" clip-rule="evenodd" d="M2.94118 5.05436H7.82752L8.60197 1.90606C8.88088 0.772196 9.86424 0 11.0292 0H17.6648C18.8298 0 19.8132 0.772196 20.0921 1.90606L20.8665 5.05436H28.6043V4.38828C28.6043 3.7475 29.1272 3.22333 29.7664 3.22333H32.7548C33.3939 3.22333 33.9169 3.74766 33.9169 4.38828V5.05436H37.0588C38.6765 5.05436 40 6.38111 40 8.00273V28.0516C40 29.6733 38.6765 31 37.0588 31H2.94118C1.32352 31 0 29.6733 0 28.0516V8.00273C0 6.38111 1.32352 5.05436 2.94118 5.05436ZM19.8784 18.0272C19.8784 14.9648 17.4019 12.4822 14.347 12.4822C11.2921 12.4822 8.81556 14.9648 8.81556 18.0272C8.81556 21.0896 11.2921 23.5721 14.347 23.5721C17.4019 23.5721 19.8784 21.0896 19.8784 18.0272ZM14.347 9.89805C9.86838 9.89805 6.23767 13.5376 6.23767 18.0271C6.23767 22.5167 9.8683 26.1562 14.347 26.1562C18.8256 26.1562 22.4562 22.5167 22.4562 18.0271C22.4562 13.5375 18.8256 9.89805 14.347 9.89805ZM29.0757 11.2347H33.4455C34.1818 11.2347 34.7787 10.6363 34.7787 9.89813C34.7787 9.15992 34.1818 8.56151 33.4455 8.56151H29.0757C28.3393 8.56151 27.7424 9.15992 27.7424 9.89813C27.7424 10.6363 28.3394 11.2347 29.0757 11.2347Z" fill="#9C896D"/>
</svg>
