<svg width="152" height="74" viewBox="0 0 152 74" fill="none" xmlns="http://www.w3.org/2000/svg">
<g id="Vector">
<path fill-rule="evenodd" clip-rule="evenodd" d="M121.357 36.7823H127.519V24.3838H137.583C139.021 25.0037 143.95 36.1623 145.388 36.7823H151.96L144.566 23.7638C145.182 23.3505 145.593 23.1439 146.209 22.7306C156.068 17.1513 152.987 0 139.637 0H121.357V36.7823ZM127.519 6.19926C131.627 6.19926 135.735 6.19926 139.637 6.19926C147.853 6.4059 147.853 18.1845 139.637 18.3911C135.735 18.3911 131.627 18.3911 127.519 18.3911V6.19926Z" fill="#141414"/>
<path fill-rule="evenodd" clip-rule="evenodd" d="M75.9667 15.291H60.5626V21.4903H69.805V26.6564C68.7781 27.4829 67.7512 29.1361 64.2596 30.1693C56.6602 32.4423 48.6501 27.0696 48.4447 19.0106C48.2393 13.2246 51.5255 9.09179 55.4279 7.23201C57.4817 6.1988 60.5626 5.78552 63.2326 6.40544C66.5188 7.02537 67.3404 8.47186 69.3943 9.71172L73.502 5.37223C69.3942 -0.207099 57.4817 -2.27352 50.2932 3.30581C33.2459 16.1176 45.98 40.708 64.6703 36.3685C69.1889 35.3353 75.9667 30.7892 75.9667 27.4829V15.291Z" fill="#141414"/>
<path fill-rule="evenodd" clip-rule="evenodd" d="M111.088 6.19926V0H86.4415V6.19926H111.088ZM86.4415 36.7823H110.883V30.7897H92.6031V21.4908H110.883V15.2915H86.4415V36.7823Z" fill="#141414"/>
<path fill-rule="evenodd" clip-rule="evenodd" d="M24.6196 24.5904H6.95626L1 36.7823H7.77781L10.8586 30.7897H27.7005L30.7813 36.7823H37.5591L19.2795 0C18.458 1.23985 16.8149 4.75277 16.1987 6.19926C15.7879 7.43911 16.4041 8.26568 17.0203 9.29889C17.6364 10.3321 18.0472 11.3653 18.458 12.3985L21.5388 18.3911C22.3604 19.631 24.4142 23.5572 24.6196 24.5904Z" fill="#141414"/>
<path d="M0 49.8316H152V50.8283H0V49.8316Z" fill="#141414"/>
<path d="M2.08594 70.7609H3.34375V65.2405C3.66146 64.7578 4.05729 64.3555 4.53125 64.0337C5.00521 63.7118 5.58854 63.5509 6.28125 63.5509C6.94271 63.5509 7.48177 63.7404 7.89844 64.1193C8.32031 64.4931 8.53125 65.1185 8.53125 65.9958V70.7609H9.80469V65.2172C10.112 64.6981 10.513 64.2906 11.0078 63.9947C11.5078 63.6989 12.0938 63.5509 12.7656 63.5509C13.4323 63.5509 13.9688 63.7404 14.375 64.1193C14.7865 64.4931 14.9922 65.1185 14.9922 65.9958V70.7609H16.2422V66.0114C16.2422 64.7137 15.9505 63.7897 15.3672 63.2395C14.7839 62.6893 14.0052 62.4141 13.0312 62.4141C12.2917 62.4141 11.6094 62.5699 10.9844 62.8813C10.3646 63.1928 9.88281 63.6158 9.53906 64.1505H9.53125C9.30208 63.5847 8.92969 63.1538 8.41406 62.858C7.90365 62.5621 7.30469 62.4141 6.61719 62.4141C5.95052 62.4141 5.33073 62.5413 4.75781 62.7957C4.1849 63.0448 3.70312 63.4315 3.3125 63.9558H3.28906L3.27344 62.5699H2.08594V70.7609Z" fill="#141414"/>
<path d="M22.6984 68.4484C22.6984 69.279 22.9901 69.8993 23.5734 70.3093C24.1568 70.7142 24.9849 70.9167 26.0578 70.9167C26.9536 70.9167 27.7323 70.7765 28.3937 70.4962C29.0552 70.2107 29.5031 69.8993 29.7375 69.5619C29.7583 69.7747 29.8052 69.9953 29.8781 70.2237C29.9562 70.4521 30.0396 70.6312 30.1281 70.7609H31.3391V70.6364C31.2036 70.4184 31.0969 70.1588 31.0187 69.8577C30.9406 69.5515 30.9016 69.2297 30.9016 68.8923V65.1549C30.9016 64.2517 30.576 63.5561 29.925 63.0682C29.274 62.5802 28.3703 62.3363 27.2141 62.3363C25.9797 62.3363 25.0187 62.5387 24.3312 62.9436C23.649 63.3433 23.3078 63.9688 23.3078 64.8201V64.9291H24.5656V64.8123C24.5656 64.3295 24.7922 63.9688 25.2453 63.73C25.7036 63.4912 26.3312 63.3718 27.1281 63.3718C27.9458 63.3718 28.5682 63.5224 28.9953 63.8234C29.4224 64.1193 29.6359 64.5631 29.6359 65.1549V65.8089H26.9328C25.6047 65.8089 24.5656 66.0347 23.8156 66.4863C23.0708 66.9327 22.6984 67.5868 22.6984 68.4484ZM23.9719 68.4095C23.9719 67.8697 24.2531 67.4622 24.8156 67.1871C25.3781 66.912 26.149 66.7744 27.1281 66.7744H29.6359V67.9968C29.6359 68.4848 29.3026 68.9208 28.6359 69.3049C27.9693 69.689 27.1958 69.8811 26.3156 69.8811C25.4771 69.8811 24.8755 69.7643 24.5109 69.5307C24.1516 69.2971 23.9719 68.9234 23.9719 68.4095Z" fill="#141414"/>
<path d="M37.9359 70.7609H39.1937V65.186C39.4437 64.75 39.8135 64.3815 40.3031 64.0804C40.7927 63.7793 41.3578 63.6288 41.9984 63.6288C42.1651 63.6288 42.3187 63.6366 42.4594 63.6521C42.6 63.6677 42.7589 63.6911 42.9359 63.7222V62.4297C42.8474 62.409 42.725 62.3882 42.5687 62.3674C42.4177 62.3467 42.2562 62.3363 42.0844 62.3363C41.4333 62.3363 40.8578 62.4842 40.3578 62.7801C39.863 63.076 39.4646 63.4186 39.1625 63.8079L39.1234 62.5699H37.9359V70.7609Z" fill="#141414"/>
<path d="M49.0328 70.7609H50.2906V67.9891L56.8688 62.5699H55.025L50.2906 66.533V58.8013H49.0328V70.7609ZM55.7672 70.7609H57.3766L52.5953 65.443L51.7281 66.2605L55.7672 70.7609Z" fill="#141414"/>
<path d="M62.6219 66.79C62.6219 68.0254 63.0411 69.035 63.8797 69.8188C64.7182 70.6026 65.8849 70.9945 67.3797 70.9945C68.2703 70.9945 69.0437 70.857 69.7 70.5819C70.3615 70.3067 70.8458 69.9642 71.1531 69.5541L70.3016 68.791C69.9891 69.1077 69.588 69.3724 69.0984 69.5852C68.6088 69.798 68.0437 69.9045 67.4031 69.9045C66.226 69.9045 65.3354 69.6242 64.7312 69.0636C64.1323 68.4978 63.8328 67.7399 63.8328 66.79V66.5408C63.8328 65.5857 64.1115 64.8253 64.6687 64.2595C65.226 63.6937 66.0021 63.4108 66.9969 63.4108C68.0906 63.4108 68.8693 63.6444 69.3328 64.1115C69.7963 64.5787 70.0281 65.2665 70.0281 66.1749V65.9569H63.3172V66.9613H71.2781V66.4007C71.2833 65.1134 70.9135 64.1141 70.1687 63.403C69.4292 62.6918 68.4057 62.3363 67.0984 62.3363C65.7807 62.3363 64.7052 62.7282 63.8719 63.512C63.0385 64.2958 62.6219 65.3054 62.6219 66.5408V66.79Z" fill="#141414"/>
<path d="M76.5938 63.6599H82.3359V62.5699H76.5938V63.6599ZM78.5703 68.4874C78.5703 69.3542 78.776 69.9901 79.1875 70.395C79.599 70.7947 80.138 70.9945 80.8047 70.9945C81.0703 70.9945 81.3203 70.9738 81.5547 70.9322C81.7891 70.8959 81.9688 70.8492 82.0938 70.7921V69.7254C81.9427 69.7721 81.7865 69.811 81.625 69.8422C81.4688 69.8733 81.3047 69.8889 81.1328 69.8889C80.7109 69.8889 80.388 69.7825 80.1641 69.5697C79.9453 69.3516 79.8359 68.9909 79.8359 68.4874V60.5455H78.5703V68.4874Z" fill="#141414"/>
<path d="M88.5578 74H89.8156V69.6631C90.1646 70.042 90.6412 70.3457 91.2453 70.5741C91.8495 70.8025 92.537 70.9167 93.3078 70.9167C94.5474 70.9167 95.5344 70.5274 96.2688 69.7487C97.0083 68.9701 97.3781 67.9839 97.3781 66.79V66.5408C97.3781 65.3469 97.0031 64.3607 96.2531 63.5821C95.5083 62.8035 94.5031 62.4141 93.2375 62.4141C92.4615 62.4141 91.7635 62.5465 91.1438 62.8112C90.524 63.0708 90.063 63.39 89.7609 63.7689L89.7219 62.5699H88.5578V74ZM89.8156 68.2694V65.0614C90.05 64.6618 90.4432 64.3114 90.9953 64.0103C91.5474 63.7041 92.1828 63.5509 92.9016 63.5509C93.9849 63.5509 94.7844 63.8053 95.3 64.314C95.8208 64.8175 96.0813 65.5598 96.0813 66.5408V66.79C96.0813 67.7607 95.8208 68.5029 95.3 69.0168C94.7844 69.5255 93.9849 69.7799 92.9016 69.7799C92.1828 69.7799 91.5448 69.6293 90.9875 69.3283C90.4354 69.022 90.0448 68.6691 89.8156 68.2694Z" fill="#141414"/>
<path d="M103.912 70.7609H105.178V58.8013H103.912V70.7609Z" fill="#141414"/>
<path d="M111.736 68.4484C111.736 69.279 112.028 69.8993 112.611 70.3093C113.194 70.7142 114.022 70.9167 115.095 70.9167C115.991 70.9167 116.77 70.7765 117.431 70.4962C118.093 70.2107 118.541 69.8993 118.775 69.5619C118.796 69.7747 118.843 69.9953 118.916 70.2237C118.994 70.4521 119.077 70.6312 119.166 70.7609H120.377V70.6364C120.241 70.4184 120.134 70.1588 120.056 69.8577C119.978 69.5515 119.939 69.2297 119.939 68.8923V65.1549C119.939 64.2517 119.614 63.5561 118.963 63.0682C118.311 62.5802 117.408 62.3363 116.252 62.3363C115.017 62.3363 114.056 62.5387 113.369 62.9436C112.686 63.3433 112.345 63.9688 112.345 64.8201V64.9291H113.603V64.8123C113.603 64.3295 113.83 63.9688 114.283 63.73C114.741 63.4912 115.369 63.3718 116.166 63.3718C116.983 63.3718 117.606 63.5224 118.033 63.8234C118.46 64.1193 118.673 64.5631 118.673 65.1549V65.8089H115.97C114.642 65.8089 113.603 66.0347 112.853 66.4863C112.108 66.9327 111.736 67.5868 111.736 68.4484ZM113.009 68.4095C113.009 67.8697 113.291 67.4622 113.853 67.1871C114.416 66.912 115.186 66.7744 116.166 66.7744H118.673V67.9968C118.673 68.4848 118.34 68.9208 117.673 69.3049C117.007 69.689 116.233 69.8811 115.353 69.8811C114.515 69.8811 113.913 69.7643 113.548 69.5307C113.189 69.2971 113.009 68.9234 113.009 68.4095Z" fill="#141414"/>
<path d="M126.497 66.79C126.497 68.0513 126.916 69.0687 127.755 69.8422C128.598 70.6104 129.713 70.9945 131.098 70.9945C132.296 70.9945 133.265 70.722 134.005 70.177C134.749 69.6268 135.122 68.913 135.122 68.0358V67.9579H133.825V68.0358C133.825 68.586 133.588 69.0324 133.114 69.375C132.645 69.7124 131.973 69.8811 131.098 69.8811C130.02 69.8811 129.197 69.6086 128.63 69.0636C128.067 68.5185 127.786 67.7607 127.786 66.79V66.5408C127.786 65.5753 128.065 64.8201 128.622 64.275C129.184 63.7248 130.01 63.4497 131.098 63.4497C131.973 63.4497 132.643 63.6184 133.106 63.9558C133.575 64.288 133.815 64.7266 133.825 65.2717V65.3729H135.122V65.2483C135.096 64.3711 134.718 63.6677 133.989 63.1383C133.26 62.6036 132.296 62.3363 131.098 62.3363C129.713 62.3363 128.598 62.723 127.755 63.4964C126.916 64.2647 126.497 65.2795 126.497 66.5408V66.79Z" fill="#141414"/>
<path d="M141.031 66.79C141.031 68.0254 141.451 69.035 142.289 69.8188C143.128 70.6026 144.294 70.9945 145.789 70.9945C146.68 70.9945 147.453 70.857 148.109 70.5819C148.771 70.3067 149.255 69.9642 149.562 69.5541L148.711 68.791C148.398 69.1077 147.997 69.3724 147.508 69.5852C147.018 69.798 146.453 69.9045 145.812 69.9045C144.635 69.9045 143.745 69.6242 143.141 69.0636C142.542 68.4978 142.242 67.7399 142.242 66.79V66.5408C142.242 65.5857 142.521 64.8253 143.078 64.2595C143.635 63.6937 144.411 63.4108 145.406 63.4108C146.5 63.4108 147.279 63.6444 147.742 64.1115C148.206 64.5787 148.438 65.2665 148.438 66.1749V65.9569H141.727V66.9613H149.688V66.4007C149.693 65.1134 149.323 64.1141 148.578 63.403C147.839 62.6918 146.815 62.3363 145.508 62.3363C144.19 62.3363 143.115 62.7282 142.281 63.512C141.448 64.2958 141.031 65.3054 141.031 66.5408V66.79Z" fill="#141414"/>
</g>
</svg>
