<svg width="99" height="25" viewBox="0 0 99 25" fill="none" xmlns="http://www.w3.org/2000/svg">
<g id="Vector">
<path fill-rule="evenodd" clip-rule="evenodd" d="M78.9099 24.4394H82.9496V16.3699H89.5479C90.4905 16.7734 93.7223 24.0359 94.6649 24.4394H98.974L94.1263 15.9665C94.5302 15.6975 94.7996 15.563 95.2035 15.294C101.667 11.6627 99.6473 0.5 90.8945 0.5H78.9099V24.4394ZM82.9496 4.53473C85.6428 4.53473 88.336 4.53473 90.8945 4.53473C96.2808 4.66922 96.2808 12.3352 90.8945 12.4697C88.336 12.4697 85.6428 12.4697 82.9496 12.4697V4.53473Z" fill="#141414"/>
<path fill-rule="evenodd" clip-rule="evenodd" d="M49.1503 10.452H39.051V14.4868H45.1106V17.849C44.4373 18.387 43.764 19.4629 41.4748 20.1354C36.4924 21.6148 31.2408 18.118 31.1061 12.8729C30.9714 9.10712 33.126 6.4173 35.6845 5.20688C37.0311 4.53443 39.051 4.26545 40.8015 4.66892C42.956 5.07239 43.4947 6.01383 44.8413 6.82077L47.5344 3.99647C44.8413 0.365212 37.0311 -0.979697 32.318 2.65156C21.1414 10.99 29.4902 26.9944 41.7441 24.1701C44.7066 23.4976 49.1503 20.5388 49.1503 18.387V10.452Z" fill="#141414"/>
<path fill-rule="evenodd" clip-rule="evenodd" d="M72.1769 4.53473V0.5H56.0179V4.53473H72.1769ZM56.0179 24.4394H72.0423V20.5391H60.0577V14.4871H72.0423V10.4523H56.0179V24.4394Z" fill="#141414"/>
<path fill-rule="evenodd" clip-rule="evenodd" d="M15.4857 16.5044H3.9051L0 24.4394H4.44373L6.46361 20.5391H17.5056L19.5255 24.4394H23.9692L11.9846 0.5C11.446 1.30695 10.3687 3.59329 9.96473 4.53473C9.69541 5.34167 10.0994 5.87964 10.5034 6.55209C10.9073 7.22454 11.1767 7.897 11.446 8.56945L13.4658 12.4697C14.0045 13.2766 15.3511 15.832 15.4857 16.5044Z" fill="#141414"/>
</g>
</svg>
