<svg width="29" height="36" viewBox="0 0 29 36" fill="none" xmlns="http://www.w3.org/2000/svg">
<path id="Vector" d="M14.5001 16.3636C18.949 16.3636 22.5557 12.7005 22.5557 8.18177C22.5557 3.66303 18.949 0 14.5001 0C10.0511 0 6.4445 3.6631 6.4445 8.18185C6.44986 12.6983 10.0533 16.3583 14.5001 16.3636ZM14.5001 3.27276C17.1694 3.27276 19.3334 5.47065 19.3334 8.18185C19.3334 10.8931 17.1694 13.0909 14.5001 13.0909C11.8307 13.0909 9.66674 10.8931 9.66674 8.18185C9.66674 5.47065 11.8306 3.27276 14.5001 3.27276ZM1.61116 36H27.3889C28.2787 36 29 35.2674 29 34.3637C29 26.23 22.5082 19.6364 14.5 19.6364C6.49185 19.6364 0 26.23 0 34.3637C7.55208e-05 35.2674 0.721375 36 1.61116 36ZM14.5001 22.9091C20.1039 22.9162 24.8554 27.0951 25.6635 32.7273H3.33666C4.14473 27.0951 8.8962 22.9162 14.5001 22.9091Z" fill="white"/>
</svg>
