<svg width="28" height="36" viewBox="0 0 28 36" fill="none" xmlns="http://www.w3.org/2000/svg">
<g id="Vector">
<path d="M9.96725 0H12.0937V4.23529H9.96725V0Z" fill="white"/>
<path d="M14.2154 4.34771L17.2222 1.35336L18.7257 2.85053L15.7188 5.84489L14.2154 4.34771Z" fill="white"/>
<path d="M3.33099 2.84961L4.83442 1.35243L7.84132 4.34684L6.33789 5.84401L3.33099 2.84961Z" fill="white"/>
<path d="M25.668 19.4634C26.0345 17.7952 25.0255 16.1673 23.4122 15.7216C23.734 14.2603 22.9993 12.7991 21.6738 12.1702L25.5621 8.29793C26.8058 7.05946 26.8058 5.04424 25.5621 3.80577C24.3157 2.5644 22.2979 2.56412 21.0512 3.80577L10.6952 14.1187C9.37291 12.2804 7.40421 10.2242 5.16034 9.93141C3.83625 9.75854 2.57156 10.2294 1.50364 11.2928L0 12.7902L3.25792 16.0345C5.19252 17.9611 5.19252 21.0959 3.25785 23.0225L1.50371 24.7694L12.7811 36L15.6436 33.1492L19.3229 31.5789C20.3736 31.1306 21.3162 30.4951 22.1244 29.6901L27.0657 24.7693C28.79 23.0525 28.0142 20.1119 25.668 19.4634ZM25.562 23.2721L20.6208 28.1929C20.0046 28.8064 19.2862 29.2909 18.4852 29.6326L14.4294 31.3635L12.781 33.0053L4.51098 24.7694L4.76155 24.5199C7.52527 21.7676 7.52527 17.2894 4.76155 14.5372L3.00727 12.7902C3.61488 12.1852 4.21072 11.9439 4.88205 12.0308C6.85373 12.2863 8.96051 15.2111 9.6054 16.3155L10.2988 17.5081L22.5549 5.30323C22.9703 4.88937 23.643 4.88937 24.0585 5.30323C24.474 5.71694 24.474 6.38683 24.0585 6.80061C23.1856 7.66991 17.3182 13.513 16.5403 14.2876L18.0439 15.785L19.5481 14.2871C19.9628 13.8748 20.637 13.875 21.0512 14.2876C21.4658 14.7004 21.4658 15.3722 21.0513 15.785C19.5354 17.2944 20.2553 16.5777 18.7958 18.0311L20.2994 19.5285L21.804 18.0302C22.2189 17.6183 22.8925 17.6187 23.3068 18.0311C23.7214 18.444 23.7214 19.1157 23.3068 19.5285C23.081 19.7534 21.2779 21.549 21.0513 21.7746L22.555 23.272L24.0586 21.7746C24.4741 21.3608 25.1467 21.3608 25.5623 21.7746C25.9766 22.1875 25.9766 22.8593 25.562 23.2721Z" fill="white"/>
</g>
</svg>
