<svg width="36" height="36" viewBox="0 0 36 36" fill="none" xmlns="http://www.w3.org/2000/svg">
<path id="Vector" d="M14.0587 25.3054H18.8385V28.117H14.0587V25.3054ZM8.78659 24.9541C7.81595 24.9541 7.02933 25.7407 7.02933 26.7113C7.02933 27.6817 7.81595 28.4686 8.78659 28.4686C9.75723 28.4686 10.5439 27.6817 10.5439 26.7113C10.5439 25.7407 9.75723 24.9541 8.78659 24.9541ZM28.2577 16.3781H14.0587V19.1898H28.2577V16.3781ZM8.78659 16.0269C7.81595 16.0269 7.02933 16.8135 7.02933 17.7841C7.02933 18.7548 7.81595 19.5414 8.78659 19.5414C9.75723 19.5414 10.5439 18.7548 10.5439 17.7841C10.5439 16.8135 9.75723 16.0269 8.78659 16.0269ZM28.2577 7.94312H14.0587V10.7548H28.2577V7.94312ZM8.78659 7.59155C7.81595 7.59155 7.02933 8.37845 7.02933 9.34882C7.02933 10.3195 7.81595 11.1064 8.78659 11.1064C9.75723 11.1064 10.5439 10.3195 10.5439 9.34882C10.5439 8.37845 9.75723 7.59155 8.78659 7.59155ZM2.81168 31.7725V4.21765C2.81168 3.44229 3.44229 2.81168 4.21765 2.81168H31.7725C32.5475 2.81168 33.1782 3.44229 33.1782 4.21765V20.1039H35.9898V4.21765C35.9898 1.89212 34.098 0 31.7725 0H4.21765C1.89212 0 0 1.89212 0 4.21765V31.7725C0 34.098 1.89212 35.9898 4.21765 35.9898H20.4552V33.1782H4.21765C3.44229 33.1782 2.81168 32.5475 2.81168 31.7725ZM34.0117 36L31.2119 33.2001C30.2646 33.7662 29.158 34.0919 27.9767 34.0919C24.4883 34.0919 21.6502 31.2539 21.6502 27.7657C21.6502 24.2773 24.4883 21.4393 27.9767 21.4393C31.4648 21.4393 34.3029 24.2773 34.3029 27.7657C34.3029 29.0564 33.914 30.2577 33.2479 31.2597L36 34.0117L34.0117 36ZM27.9767 31.2803C29.9147 31.2803 31.4912 29.7037 31.4912 27.7657C31.4912 25.8278 29.9147 24.2509 27.9767 24.2509C26.0387 24.2509 24.4619 25.8278 24.4619 27.7657C24.4619 29.7037 26.0387 31.2803 27.9767 31.2803Z" fill="#AEAEAE"/>
</svg>
